<svg id="Layer_3" xmlns="http://www.w3.org/2000/svg" viewBox="0 0 334.2 88.7"><style>.st0{fill:#00aaa0}</style><path class="st0" d="M318.7 79.3c0 .3.2.6.6.6H333c.6 0 1.2.5 1.2 1.2v5.8c0 .6-.5 1.2-1.2 1.2h-21.3c-.6 0-1.2-.5-1.2-1.2V48.5c0-.6.5-1.2 1.2-1.2h21.1c.6 0 1.2.5 1.2 1.2v5.8c0 .6-.5 1.2-1.2 1.2h-13.5c-.3 0-.6.2-.6.6v7c0 .3.2.6.6.6h13.1c.6 0 1.2.5 1.2 1.2v5.8c0 .6-.5 1.2-1.2 1.2h-13.1c-.3 0-.6.2-.6.6v6.8zm-75.9-3.5c0 7-5.8 12.8-13.8 12.8-7.9 0-13.7-5.8-13.7-12.8V48.6c0-.6.5-1.2 1.2-1.2h5.9c.6 0 1.2.5 1.2 1.2v27.3c0 2.6 2.1 4.6 5.5 4.6 3.5 0 5.6-2.1 5.6-4.6V48.6c0-.6.5-1.2 1.2-1.2h5.9c.6 0 1.2.5 1.2 1.2v27.2h-.2zM171.4 88c-1 0-1.4-.5-1.6-1L162 66.7c-.1-.3-.5-.2-.5.1v20.1c0 .6-.5 1.2-1.2 1.2h-5.8c-.6 0-1.2-.5-1.2-1.2V48.6c0-.6.5-1.2 1.2-1.2h6.9c.9 0 1.3.5 1.5 1l7.9 22c.1.3.5.2.5-.1V48.6c0-.6.5-1.2 1.2-1.2h5.8c.6 0 1.2.5 1.2 1.2v38.3c0 .6-.5 1.2-1.2 1.2l-6.9-.1zm-70.3-16.5c-.2-.2-.6-.2-.6.2v15.2c0 .6-.5 1.2-1.2 1.2h-5.7c-.6 0-1.2-.5-1.2-1.2V48.6c0-.6.5-1.2 1.2-1.2h5.7c.6 0 1.2.5 1.2 1.2v13.3c0 .3.4.4.6.2l9.6-14.1c.2-.2.4-.6 1.3-.6h5.9c1.1 0 1.6 1.2 1 2.1l-10.8 16c-.5.8-.5 1.2 0 1.9L120 85.8c.5.8.1 2.2-1.2 2.2h-6.3c-.9 0-1.2-.4-1.3-.7l-10.1-15.8zm92.4 0c-.2-.2-.6-.2-.6.2v15.2c0 .6-.5 1.2-1.2 1.2H186c-.6 0-1.2-.5-1.2-1.2V48.6c0-.6.5-1.2 1.2-1.2h5.7c.6 0 1.2.5 1.2 1.2v13.3c0 .3.4.4.6.2l9.6-14.1c.2-.2.4-.6 1.3-.6h5.9c1.1 0 1.6 1.2 1 2.1l-10.8 16c-.5.8-.5 1.2 0 1.9l11.9 18.4c.5.8.1 2.2-1.2 2.2h-6.3c-.9 0-1.2-.4-1.3-.7l-10.1-15.8zM74.9 79.3c0 .3.2.6.6.6h12.2c.6 0 1.2.5 1.2 1.2v5.8c0 .6-.5 1.2-1.2 1.2H67.9c-.6 0-1.2-.5-1.2-1.2V48.6c0-.6.5-1.2 1.2-1.2h5.8c.6 0 1.2.5 1.2 1.2v30.7zM21 87.1c-.2.6-.6.9-1.1.9h-8.8c-.5 0-.9-.3-1.1-.9L0 48.8c-.2-.6.2-1.4 1.1-1.4h6.4c.5 0 1 .2 1.1.9L15 75.5c.1.2.2.4.4.4h.3c.2 0 .3-.2.4-.4l6.3-27.2c.1-.6.6-.9 1.1-.9H30c.9 0 1.3.8 1.1 1.4L21 87.1zm26-33.8c.3 2.3.3 5.4 0 7.7-.4 3.3-2.8 6.1-6.5 6.1-3.8 0-6.2-2.8-6.5-6.1-.3-2.3-.3-5.4 0-7.7.4-3.3 2.8-6.1 6.5-6.1s6.1 2.8 6.5 6.1M43.1 61c.3-2.3.3-5.4 0-7.7-.1-1.2-1-2.2-2.7-2.2s-2.5 1-2.7 2.2c-.3 2.3-.3 5.4 0 7.7.1 1.2 1 2.2 2.7 2.2s2.5-1 2.7-2.2m19.2-7.7c.3 2.3.3 5.4 0 7.7-.4 3.3-2.8 6.1-6.5 6.1-3.8 0-6.2-2.8-6.5-6.1-.3-2.3-.3-5.4 0-7.7.4-3.3 2.8-6.1 6.5-6.1s6.1 2.8 6.5 6.1M58.4 61c.3-2.3.3-5.4 0-7.7-.1-1.2-1-2.2-2.7-2.2s-2.5 1-2.7 2.2c-.3 2.3-.3 5.4 0 7.7.1 1.2 1 2.2 2.7 2.2s2.6-1 2.7-2.2M47 74.4c.3 2.3.3 5.4 0 7.7-.4 3.3-2.8 6.1-6.5 6.1-3.8 0-6.2-2.8-6.5-6.1-.3-2.3-.3-5.4 0-7.7.4-3.3 2.8-6.1 6.5-6.1 3.7.1 6.1 2.8 6.5 6.1m-3.9 7.7c.3-2.3.3-5.4 0-7.7-.1-1.2-1-2.2-2.7-2.2s-2.5 1-2.7 2.2c-.3 2.3-.3 5.4 0 7.7.1 1.2 1 2.2 2.7 2.2s2.5-1 2.7-2.2m19.2-7.7c.3 2.3.3 5.4 0 7.7-.4 3.3-2.8 6.1-6.5 6.1-3.8 0-6.2-2.8-6.5-6.1-.3-2.3-.3-5.4 0-7.7.4-3.3 2.8-6.1 6.5-6.1 3.7.1 6.1 2.8 6.5 6.1m-3.9 7.7c.3-2.3.3-5.4 0-7.7-.1-1.2-1-2.2-2.7-2.2s-2.5 1-2.7 2.2c-.3 2.3-.3 5.4 0 7.7.1 1.2 1 2.2 2.7 2.2 1.7 0 2.6-1 2.7-2.2m234.2-34.7c7.1 0 12.1 5.9 12.9 12.8.6 4.9.6 10.1 0 15-.8 7-5.8 12.8-12.9 12.8h-12.2c-.6 0-1.2-.5-1.2-1.2V48.5c0-.6.5-1.2 1.2-1.2h12.2v.1zm-4.7 8.1c-.3 0-.6.2-.6.6v23.2c0 .3.2.6.6.6h4.6c2.7 0 4.5-2.1 4.8-4.7.6-4.9.6-10.1 0-15-.3-2.6-2.1-4.7-4.8-4.7h-4.6zM256 66.7c-.5 0-.7-.2-.7-.5l-3.8-9.7c-.1-.2-.2-.1-.2.1v9.6c0 .3-.2.6-.6.6H248c-.3 0-.6-.2-.6-.6V47.9c0-.3.2-.6.6-.6h3.3c.4 0 .6.2.7.5l3.8 10.5c.1.2.2.1.2-.1V47.9c0-.3.2-.6.6-.6h2.8c.3 0 .6.2.6.6v18.3c0 .3-.2.6-.6.6l-3.4-.1zm14.7 0c-.5 0-.7-.2-.7-.5l-3.8-9.7c-.1-.2-.2-.1-.2.1v9.6c0 .3-.2.6-.6.6h-2.8c-.3 0-.6-.2-.6-.6V47.9c0-.3.2-.6.6-.6h3.3c.4 0 .6.2.7.5l3.8 10.5c.1.2.2.1.2-.1V47.9c0-.3.2-.6.6-.6h2.8c.3 0 .6.2.6.6v18.3c0 .3-.2.6-.6.6l-3.3-.1zM256 88c-.5 0-.7-.2-.7-.5l-3.8-9.7c-.1-.2-.2-.1-.2.1v9.6c0 .3-.2.6-.6.6H248c-.3 0-.6-.2-.6-.6V69.1c0-.3.2-.6.6-.6h3.3c.4 0 .6.2.7.5l3.8 10.5c.1.2.2.1.2-.1V69.1c0-.3.2-.6.6-.6h2.8c.3 0 .6.2.6.6v18.3c0 .3-.2.6-.6.6H256zm14.7 0c-.5 0-.7-.2-.7-.5l-3.8-9.7c-.1-.2-.2-.1-.2.1v9.6c0 .3-.2.6-.6.6h-2.8c-.3 0-.6-.2-.6-.6V69.1c0-.3.2-.6.6-.6h3.3c.4 0 .6.2.7.5l3.8 10.5c.1.2.2.1.2-.1V69.1c0-.3.2-.6.6-.6h2.8c.3 0 .6.2.6.6v18.3c0 .3-.2.6-.6.6h-3.3zM128 62.7c0 .2.1.3.3.3h6.6c.3 0 .6.2.6.6v2.8c0 .3-.2.6-.6.6h-10.2c-.3 0-.6-.2-.6-.6V48c0-.3.2-.6.6-.6h10.1c.3 0 .6.2.6.6v2.8c0 .3-.2.6-.6.6h-6.5c-.2 0-.3.1-.3.3V55c0 .2.1.3.3.3h6.2c.3 0 .6.2.6.6v2.8c0 .3-.2.6-.6.6h-6.2c-.2 0-.3.1-.3.3v3.1zm12.9 0c0 .2.1.3.3.3h6.6c.3 0 .6.2.6.6v2.8c0 .3-.2.6-.6.6h-10.2c-.3 0-.6-.2-.6-.6V48c0-.3.2-.6.6-.6h10.1c.3 0 .6.2.6.6v2.8c0 .3-.2.6-.6.6h-6.5c-.2 0-.3.1-.3.3V55c0 .2.1.3.3.3h6.2c.3 0 .6.2.6.6v2.8c0 .3-.2.6-.6.6h-6.2c-.2 0-.3.1-.3.3v3.1zM128 83.8c0 .2.1.3.3.3h6.6c.3 0 .6.2.6.6v2.8c0 .3-.2.6-.6.6h-10.2c-.3 0-.6-.2-.6-.6V69.1c0-.3.2-.6.6-.6h10.1c.3 0 .6.3.6.6v2.8c0 .3-.2.6-.6.6h-6.5c-.2 0-.3.1-.3.3V76c0 .2.1.3.3.3h6.2c.3 0 .6.2.6.6v2.8c0 .3-.2.6-.6.6h-6.2c-.2 0-.3.1-.3.3v3.2zm12.9 0c0 .2.1.3.3.3h6.6c.3 0 .6.2.6.6v2.8c0 .3-.2.6-.6.6h-10.2c-.3 0-.6-.2-.6-.6V69.1c0-.3.2-.6.6-.6h10.1c.3 0 .6.3.6.6v2.8c0 .3-.2.6-.6.6h-6.5c-.2 0-.3.1-.3.3V76c0 .2.1.3.3.3h6.2c.3 0 .6.2.6.6v2.8c0 .3-.2.6-.6.6h-6.2c-.2 0-.3.1-.3.3v3.2zM17.1 27c.1.4.6.4.7 0l6.1-25.4c.2-.7.6-1 1.2-1h8.5c.6 0 1.2.5 1.2 1.2v38.3c0 .6-.5 1.2-1.2 1.2h-5.1c-.6 0-1.2-.5-1.2-1.2V18.2c0-.3-.4-.5-.5-.1L21 40.3c-.2.7-.6 1-1.2 1h-4.6c-.6 0-1-.3-1.2-1L8.2 18.1c-.1-.3-.5-.2-.5.1v21.9c0 .6-.5 1.2-1.2 1.2H1.4c-.6 0-1.2-.5-1.2-1.2V1.8C.2 1.2.7.6 1.4.6H10c.6 0 1 .3 1.2 1L17.1 27zM86 24.5c-7.2-1.6-13-4.8-13-12.3C73 5.4 78.6 0 86.2 0 94 0 99.6 5.4 99.6 12.2v.9c0 .6-.5 1.2-1.2 1.2h-5.9c-.6 0-1.2-.5-1.2-1.2v-.9c0-2.3-1.9-4.3-5.2-4.3-3.2 0-5 1.7-5 4.1 0 2.2 2.1 3.6 5.2 4.2 8.1 1.6 14 5 14 13 0 7.5-5.9 12.7-14.2 12.7-8 0-13.8-5.6-13.8-12.7v-1.7c0-.6.5-1.2 1.2-1.2h5.9c.6 0 1.2.5 1.2 1.2v1.7c0 2.7 2 4.8 5.6 4.8 3.5 0 5.7-2 5.7-4.8.1-2.5-1.6-3.7-5.9-4.7zM53.2 14.4c0 3.4-2.8 6.2-6.6 6.2S40 17.8 40 14.4V1.2c0-.3.3-.6.6-.6h2.8c.3 0 .6.3.6.6v13.1c0 1.2 1 2.2 2.7 2.2s2.7-1 2.7-2.2V1.2c0-.3.3-.6.6-.6h2.8c.3 0 .6.3.6.6v13.2h-.2zm15 0c0 3.4-2.8 6.2-6.6 6.2S55 17.8 55 14.4V1.2c0-.3.3-.6.6-.6h2.8c.3 0 .6.3.6.6v13.1c0 1.2 1 2.2 2.7 2.2s2.7-1 2.7-2.2V1.2c0-.3.3-.6.6-.6h2.8c.3 0 .6.3.6.6v13.2h-.2zm-15 21.2c0 3.4-2.8 6.2-6.6 6.2S40 39 40 35.6V22.5c0-.3.3-.6.6-.6h2.8c.3 0 .6.3.6.6v13.1c0 1.2 1 2.2 2.7 2.2s2.7-1 2.7-2.2V22.5c0-.3.3-.6.6-.6h2.8c.3 0 .6.3.6.6v13.1h-.2zm15 0c0 3.4-2.8 6.2-6.6 6.2S55 39 55 35.6V22.5c0-.3.3-.6.6-.6h2.8c.3 0 .6.3.6.6v13.1c0 1.2 1 2.2 2.7 2.2s2.7-1 2.7-2.2V22.5c0-.3.3-.6.6-.6h2.8c.3 0 .6.3.6.6v13.1h-.2zm115-8.6c.1.4.6.4.7 0L190 1.6c.2-.7.6-1 1.2-1h8.5c.6 0 1.2.5 1.2 1.2v38.3c0 .6-.5 1.2-1.2 1.2h-5.1c-.6 0-1.2-.5-1.2-1.2V18.2c0-.3-.4-.5-.5-.1L187 40.3c-.2.7-.6 1-1.2 1h-4.6c-.6 0-1-.3-1.2-1l-5.8-22.2c-.1-.3-.5-.2-.5.1v21.9c0 .6-.5 1.2-1.2 1.2h-5.1c-.6 0-1.2-.5-1.2-1.2V1.8c0-.6.5-1.2 1.2-1.2h8.6c.6 0 1 .3 1.2 1l6 25.4zm-21.7 2.1c0 7-5.8 12.8-13.8 12.8-7.9 0-13.7-5.8-13.7-12.8V1.8c0-.6.5-1.2 1.2-1.2h5.9c.6 0 1.2.5 1.2 1.2v27.3c0 2.6 2.1 4.6 5.5 4.6 3.5 0 5.6-2.1 5.6-4.6V1.8c0-.6.5-1.2 1.2-1.2h5.9c.6 0 1.2.5 1.2 1.2v27.3h-.2zm-52.8-13.6c0 .2.1.3.3.3h6.6c.3 0 .6.2.6.6v2.8c0 .3-.2.6-.6.6h-10.2c-.3 0-.6-.2-.6-.6V.8c0-.3.2-.6.6-.6h10.1c.3 0 .6.2.6.6v2.8c0 .3-.2.6-.6.6H109c-.2 0-.3.1-.3.3v3.3c0 .2.1.3.3.3h6.2c.3 0 .6.2.6.6v2.8c0 .3-.2.6-.6.6H109c-.2 0-.3.1-.3.3v3.1zm12.9 0c0 .2.1.3.3.3h6.6c.3 0 .6.2.6.6v2.8c0 .3-.2.6-.6.6h-10.2c-.3 0-.6-.2-.6-.6V.8c0-.3.2-.6.6-.6h10.1c.3 0 .6.2.6.6v2.8c0 .3-.2.6-.6.6h-6.5c-.2 0-.3.1-.3.3v3.3c0 .2.1.3.3.3h6.2c.3 0 .6.2.6.6v2.8c0 .3-.2.6-.6.6h-6.2c-.2 0-.3.1-.3.3v3.1zm-12.9 21.1c0 .2.1.3.3.3h6.6c.3 0 .6.2.6.6v2.8c0 .3-.2.6-.6.6h-10.2c-.3 0-.6-.2-.6-.6V21.9c0-.3.2-.6.6-.6h10.1c.3 0 .6.3.6.6v2.8c0 .3-.2.6-.6.6H109c-.2 0-.3.1-.3.3v3.3c0 .2.1.3.3.3h6.2c.3 0 .6.2.6.6v2.8c0 .3-.2.6-.6.6H109c-.2 0-.3.1-.3.3v3.1zm12.9 0c0 .2.1.3.3.3h6.6c.3 0 .6.2.6.6v2.8c0 .3-.2.6-.6.6h-10.2c-.3 0-.6-.2-.6-.6V21.9c0-.3.2-.6.6-.6h10.1c.3 0 .6.3.6.6v2.8c0 .3-.2.6-.6.6h-6.5c-.2 0-.3.1-.3.3v3.3c0 .2.1.3.3.3h6.2c.3 0 .6.2.6.6v2.8c0 .3-.2.6-.6.6h-6.2c-.2 0-.3.1-.3.3v3.1z"/></svg>