<?xml version="1.0" encoding="UTF-8"?>
<!-- Generator: Adobe Illustrator 22.1.0, SVG Export Plug-In . SVG Version: 6.00 Build 0)  -->
<svg version="1.1" id="Layer_3" xmlns="http://www.w3.org/2000/svg" xmlns:xlink="http://www.w3.org/1999/xlink" x="0px" y="0px" viewBox="0 0 334.2 88.7" style="enable-background:new 0 0 334.2 88.7;" xml:space="preserve">
<style type="text/css">
	.st0{fill:#00AAA0;}
</style>
<g>
	<g>
		<g>
			<path class="st0" d="M318.7,79.3c0,0.3,0.2,0.6,0.6,0.6H333c0.6,0,1.2,0.5,1.2,1.2v5.8c0,0.6-0.5,1.2-1.2,1.2h-21.3     c-0.6,0-1.2-0.5-1.2-1.2V48.5c0-0.6,0.5-1.2,1.2-1.2h21.1c0.6,0,1.2,0.5,1.2,1.2v5.8c0,0.6-0.5,1.2-1.2,1.2h-13.5     c-0.3,0-0.6,0.2-0.6,0.6v7c0,0.3,0.2,0.6,0.6,0.6h13.1c0.6,0,1.2,0.5,1.2,1.2v5.8c0,0.6-0.5,1.2-1.2,1.2h-13.1     c-0.3,0-0.6,0.2-0.6,0.6V79.3z"/>
			<path class="st0" d="M242.8,75.8c0,7-5.8,12.8-13.8,12.8c-7.9,0-13.7-5.8-13.7-12.8V48.6c0-0.6,0.5-1.2,1.2-1.2h5.9     c0.6,0,1.2,0.5,1.2,1.2v27.3c0,2.6,2.1,4.6,5.5,4.6c3.5,0,5.6-2.1,5.6-4.6V48.6c0-0.6,0.5-1.2,1.2-1.2h5.9c0.6,0,1.2,0.5,1.2,1.2     v27.2H242.8z"/>
			<path class="st0" d="M171.4,88c-1,0-1.4-0.5-1.6-1L162,66.7c-0.1-0.3-0.5-0.2-0.5,0.1v20.1c0,0.6-0.5,1.2-1.2,1.2h-5.8     c-0.6,0-1.2-0.5-1.2-1.2V48.6c0-0.6,0.5-1.2,1.2-1.2h6.9c0.9,0,1.3,0.5,1.5,1l7.9,22c0.1,0.3,0.5,0.2,0.5-0.1V48.6     c0-0.6,0.5-1.2,1.2-1.2h5.8c0.6,0,1.2,0.5,1.2,1.2v38.3c0,0.6-0.5,1.2-1.2,1.2L171.4,88L171.4,88z"/>
			<path class="st0" d="M101.1,71.5c-0.2-0.2-0.6-0.2-0.6,0.2v15.2c0,0.6-0.5,1.2-1.2,1.2h-5.7c-0.6,0-1.2-0.5-1.2-1.2V48.6     c0-0.6,0.5-1.2,1.2-1.2h5.7c0.6,0,1.2,0.5,1.2,1.2v13.3c0,0.3,0.4,0.4,0.6,0.2l9.6-14.1c0.2-0.2,0.4-0.6,1.3-0.6h5.9     c1.1,0,1.6,1.2,1,2.1l-10.8,16c-0.5,0.8-0.5,1.2,0,1.9L120,85.8c0.5,0.8,0.1,2.2-1.2,2.2h-6.3c-0.9,0-1.2-0.4-1.3-0.7L101.1,71.5     z"/>
			<path class="st0" d="M193.5,71.5c-0.2-0.2-0.6-0.2-0.6,0.2v15.2c0,0.6-0.5,1.2-1.2,1.2H186c-0.6,0-1.2-0.5-1.2-1.2V48.6     c0-0.6,0.5-1.2,1.2-1.2h5.7c0.6,0,1.2,0.5,1.2,1.2v13.3c0,0.3,0.4,0.4,0.6,0.2l9.6-14.1c0.2-0.2,0.4-0.6,1.3-0.6h5.9     c1.1,0,1.6,1.2,1,2.1l-10.8,16c-0.5,0.8-0.5,1.2,0,1.9l11.9,18.4c0.5,0.8,0.1,2.2-1.2,2.2h-6.3c-0.9,0-1.2-0.4-1.3-0.7     L193.5,71.5z"/>
			<path class="st0" d="M74.9,79.3c0,0.3,0.2,0.6,0.6,0.6h12.2c0.6,0,1.2,0.5,1.2,1.2v5.8c0,0.6-0.5,1.2-1.2,1.2H67.9     c-0.6,0-1.2-0.5-1.2-1.2V48.6c0-0.6,0.5-1.2,1.2-1.2h5.8c0.6,0,1.2,0.5,1.2,1.2V79.3z"/>
			<path class="st0" d="M21,87.1c-0.2,0.6-0.6,0.9-1.1,0.9h-8.8c-0.5,0-0.9-0.3-1.1-0.9L0,48.8c-0.2-0.6,0.2-1.4,1.1-1.4h6.4     c0.5,0,1,0.2,1.1,0.9L15,75.5c0.1,0.2,0.2,0.4,0.4,0.4h0.3c0.2,0,0.3-0.2,0.4-0.4l6.3-27.2c0.1-0.6,0.6-0.9,1.1-0.9H30     c0.9,0,1.3,0.8,1.1,1.4L21,87.1z"/>
			<path class="st0" d="M47,53.3c0.3,2.3,0.3,5.4,0,7.7c-0.4,3.3-2.8,6.1-6.5,6.1c-3.8,0-6.2-2.8-6.5-6.1c-0.3-2.3-0.3-5.4,0-7.7     c0.4-3.3,2.8-6.1,6.5-6.1S46.6,50,47,53.3 M43.1,61c0.3-2.3,0.3-5.4,0-7.7c-0.1-1.2-1-2.2-2.7-2.2s-2.5,1-2.7,2.2     c-0.3,2.3-0.3,5.4,0,7.7c0.1,1.2,1,2.2,2.7,2.2S42.9,62.2,43.1,61"/>
			<path class="st0" d="M62.3,53.3c0.3,2.3,0.3,5.4,0,7.7c-0.4,3.3-2.8,6.1-6.5,6.1c-3.8,0-6.2-2.8-6.5-6.1c-0.3-2.3-0.3-5.4,0-7.7     c0.4-3.3,2.8-6.1,6.5-6.1S61.9,50,62.3,53.3 M58.4,61c0.3-2.3,0.3-5.4,0-7.7c-0.1-1.2-1-2.2-2.7-2.2s-2.5,1-2.7,2.2     c-0.3,2.3-0.3,5.4,0,7.7c0.1,1.2,1,2.2,2.7,2.2S58.3,62.2,58.4,61"/>
			<path class="st0" d="M47,74.4c0.3,2.3,0.3,5.4,0,7.7c-0.4,3.3-2.8,6.1-6.5,6.1c-3.8,0-6.2-2.8-6.5-6.1c-0.3-2.3-0.3-5.4,0-7.7     c0.4-3.3,2.8-6.1,6.5-6.1C44.2,68.4,46.6,71.1,47,74.4 M43.1,82.1c0.3-2.3,0.3-5.4,0-7.7c-0.1-1.2-1-2.2-2.7-2.2s-2.5,1-2.7,2.2     c-0.3,2.3-0.3,5.4,0,7.7c0.1,1.2,1,2.2,2.7,2.2S42.9,83.3,43.1,82.1"/>
			<path class="st0" d="M62.3,74.4c0.3,2.3,0.3,5.4,0,7.7c-0.4,3.3-2.8,6.1-6.5,6.1c-3.8,0-6.2-2.8-6.5-6.1c-0.3-2.3-0.3-5.4,0-7.7     c0.4-3.3,2.8-6.1,6.5-6.1C59.5,68.4,61.9,71.1,62.3,74.4 M58.4,82.1c0.3-2.3,0.3-5.4,0-7.7c-0.1-1.2-1-2.2-2.7-2.2     s-2.5,1-2.7,2.2c-0.3,2.3-0.3,5.4,0,7.7c0.1,1.2,1,2.2,2.7,2.2C57.4,84.3,58.3,83.3,58.4,82.1"/>
			<g>
				<path class="st0" d="M292.6,47.4c7.1,0,12.1,5.9,12.9,12.8c0.6,4.9,0.6,10.1,0,15c-0.8,7-5.8,12.8-12.9,12.8h-12.2      c-0.6,0-1.2-0.5-1.2-1.2V48.5c0-0.6,0.5-1.2,1.2-1.2h12.2V47.4z M287.9,55.5c-0.3,0-0.6,0.2-0.6,0.6v23.2c0,0.3,0.2,0.6,0.6,0.6      h4.6c2.7,0,4.5-2.1,4.8-4.7c0.6-4.9,0.6-10.1,0-15c-0.3-2.6-2.1-4.7-4.8-4.7C292.5,55.5,287.9,55.5,287.9,55.5z"/>
			</g>
			<g>
				<g>
					<path class="st0" d="M256,66.7c-0.5,0-0.7-0.2-0.7-0.5l-3.8-9.7c-0.1-0.2-0.2-0.1-0.2,0.1v9.6c0,0.3-0.2,0.6-0.6,0.6H248       c-0.3,0-0.6-0.2-0.6-0.6V47.9c0-0.3,0.2-0.6,0.6-0.6h3.3c0.4,0,0.6,0.2,0.7,0.5l3.8,10.5c0.1,0.2,0.2,0.1,0.2-0.1V47.9       c0-0.3,0.2-0.6,0.6-0.6h2.8c0.3,0,0.6,0.2,0.6,0.6v18.3c0,0.3-0.2,0.6-0.6,0.6L256,66.7L256,66.7z"/>
				</g>
				<g>
					<path class="st0" d="M270.7,66.7c-0.5,0-0.7-0.2-0.7-0.5l-3.8-9.7c-0.1-0.2-0.2-0.1-0.2,0.1v9.6c0,0.3-0.2,0.6-0.6,0.6h-2.8       c-0.3,0-0.6-0.2-0.6-0.6V47.9c0-0.3,0.2-0.6,0.6-0.6h3.3c0.4,0,0.6,0.2,0.7,0.5l3.8,10.5c0.1,0.2,0.2,0.1,0.2-0.1V47.9       c0-0.3,0.2-0.6,0.6-0.6h2.8c0.3,0,0.6,0.2,0.6,0.6v18.3c0,0.3-0.2,0.6-0.6,0.6L270.7,66.7L270.7,66.7z"/>
				</g>
				<g>
					<path class="st0" d="M256,88c-0.5,0-0.7-0.2-0.7-0.5l-3.8-9.7c-0.1-0.2-0.2-0.1-0.2,0.1v9.6c0,0.3-0.2,0.6-0.6,0.6H248       c-0.3,0-0.6-0.2-0.6-0.6V69.1c0-0.3,0.2-0.6,0.6-0.6h3.3c0.4,0,0.6,0.2,0.7,0.5l3.8,10.5c0.1,0.2,0.2,0.1,0.2-0.1V69.1       c0-0.3,0.2-0.6,0.6-0.6h2.8c0.3,0,0.6,0.2,0.6,0.6v18.3c0,0.3-0.2,0.6-0.6,0.6C259.4,88,256,88,256,88z"/>
				</g>
				<g>
					<path class="st0" d="M270.7,88c-0.5,0-0.7-0.2-0.7-0.5l-3.8-9.7c-0.1-0.2-0.2-0.1-0.2,0.1v9.6c0,0.3-0.2,0.6-0.6,0.6h-2.8       c-0.3,0-0.6-0.2-0.6-0.6V69.1c0-0.3,0.2-0.6,0.6-0.6h3.3c0.4,0,0.6,0.2,0.7,0.5l3.8,10.5c0.1,0.2,0.2,0.1,0.2-0.1V69.1       c0-0.3,0.2-0.6,0.6-0.6h2.8c0.3,0,0.6,0.2,0.6,0.6v18.3c0,0.3-0.2,0.6-0.6,0.6C274,88,270.7,88,270.7,88z"/>
				</g>
			</g>
			<g>
				<path class="st0" d="M128,62.7c0,0.2,0.1,0.3,0.3,0.3h6.6c0.3,0,0.6,0.2,0.6,0.6v2.8c0,0.3-0.2,0.6-0.6,0.6h-10.2      c-0.3,0-0.6-0.2-0.6-0.6V48c0-0.3,0.2-0.6,0.6-0.6h10.1c0.3,0,0.6,0.2,0.6,0.6v2.8c0,0.3-0.2,0.6-0.6,0.6h-6.5      c-0.2,0-0.3,0.1-0.3,0.3V55c0,0.2,0.1,0.3,0.3,0.3h6.2c0.3,0,0.6,0.2,0.6,0.6v2.8c0,0.3-0.2,0.6-0.6,0.6h-6.2      c-0.2,0-0.3,0.1-0.3,0.3L128,62.7L128,62.7z"/>
			</g>
			<g>
				<path class="st0" d="M140.9,62.7c0,0.2,0.1,0.3,0.3,0.3h6.6c0.3,0,0.6,0.2,0.6,0.6v2.8c0,0.3-0.2,0.6-0.6,0.6h-10.2      c-0.3,0-0.6-0.2-0.6-0.6V48c0-0.3,0.2-0.6,0.6-0.6h10.1c0.3,0,0.6,0.2,0.6,0.6v2.8c0,0.3-0.2,0.6-0.6,0.6h-6.5      c-0.2,0-0.3,0.1-0.3,0.3V55c0,0.2,0.1,0.3,0.3,0.3h6.2c0.3,0,0.6,0.2,0.6,0.6v2.8c0,0.3-0.2,0.6-0.6,0.6h-6.2      c-0.2,0-0.3,0.1-0.3,0.3L140.9,62.7L140.9,62.7z"/>
			</g>
			<g>
				<path class="st0" d="M128,83.8c0,0.2,0.1,0.3,0.3,0.3h6.6c0.3,0,0.6,0.2,0.6,0.6v2.8c0,0.3-0.2,0.6-0.6,0.6h-10.2      c-0.3,0-0.6-0.2-0.6-0.6V69.1c0-0.3,0.2-0.6,0.6-0.6h10.1c0.3,0,0.6,0.3,0.6,0.6v2.8c0,0.3-0.2,0.6-0.6,0.6h-6.5      c-0.2,0-0.3,0.1-0.3,0.3V76c0,0.2,0.1,0.3,0.3,0.3h6.2c0.3,0,0.6,0.2,0.6,0.6v2.8c0,0.3-0.2,0.6-0.6,0.6h-6.2      c-0.2,0-0.3,0.1-0.3,0.3L128,83.8L128,83.8z"/>
			</g>
			<g>
				<path class="st0" d="M140.9,83.8c0,0.2,0.1,0.3,0.3,0.3h6.6c0.3,0,0.6,0.2,0.6,0.6v2.8c0,0.3-0.2,0.6-0.6,0.6h-10.2      c-0.3,0-0.6-0.2-0.6-0.6V69.1c0-0.3,0.2-0.6,0.6-0.6h10.1c0.3,0,0.6,0.3,0.6,0.6v2.8c0,0.3-0.2,0.6-0.6,0.6h-6.5      c-0.2,0-0.3,0.1-0.3,0.3V76c0,0.2,0.1,0.3,0.3,0.3h6.2c0.3,0,0.6,0.2,0.6,0.6v2.8c0,0.3-0.2,0.6-0.6,0.6h-6.2      c-0.2,0-0.3,0.1-0.3,0.3L140.9,83.8L140.9,83.8z"/>
			</g>
		</g>
	</g>
	<g>
		<g>
			<path class="st0" d="M17.1,27c0.1,0.4,0.6,0.4,0.7,0l6.1-25.4c0.2-0.7,0.6-1,1.2-1h8.5c0.6,0,1.2,0.5,1.2,1.2v38.3     c0,0.6-0.5,1.2-1.2,1.2h-5.1c-0.6,0-1.2-0.5-1.2-1.2V18.2c0-0.3-0.4-0.5-0.5-0.1L21,40.3c-0.2,0.7-0.6,1-1.2,1h-4.6     c-0.6,0-1-0.3-1.2-1L8.2,18.1c-0.1-0.3-0.5-0.2-0.5,0.1v21.9c0,0.6-0.5,1.2-1.2,1.2H1.4c-0.6,0-1.2-0.5-1.2-1.2V1.8     c0-0.6,0.5-1.2,1.2-1.2H10c0.6,0,1,0.3,1.2,1L17.1,27z"/>
		</g>
		<g>
			<path class="st0" d="M86,24.5c-7.2-1.6-13-4.8-13-12.3C73,5.4,78.6,0,86.2,0C94,0,99.6,5.4,99.6,12.2v0.9c0,0.6-0.5,1.2-1.2,1.2     h-5.9c-0.6,0-1.2-0.5-1.2-1.2v-0.9c0-2.3-1.9-4.3-5.2-4.3c-3.2,0-5,1.7-5,4.1c0,2.2,2.1,3.6,5.2,4.2c8.1,1.6,14,5,14,13     c0,7.5-5.9,12.7-14.2,12.7c-8,0-13.8-5.6-13.8-12.7v-1.7c0-0.6,0.5-1.2,1.2-1.2h5.9c0.6,0,1.2,0.5,1.2,1.2v1.7     c0,2.7,2,4.8,5.6,4.8c3.5,0,5.7-2,5.7-4.8C92,26.7,90.3,25.5,86,24.5z"/>
		</g>
		<g>
			<g>
				<path class="st0" d="M53.2,14.4c0,3.4-2.8,6.2-6.6,6.2S40,17.8,40,14.4V1.2c0-0.3,0.3-0.6,0.6-0.6h2.8c0.3,0,0.6,0.3,0.6,0.6      v13.1c0,1.2,1,2.2,2.7,2.2s2.7-1,2.7-2.2V1.2c0-0.3,0.3-0.6,0.6-0.6h2.8c0.3,0,0.6,0.3,0.6,0.6v13.2H53.2z"/>
			</g>
			<g>
				<path class="st0" d="M68.2,14.4c0,3.4-2.8,6.2-6.6,6.2c-3.8,0-6.6-2.8-6.6-6.2V1.2c0-0.3,0.3-0.6,0.6-0.6h2.8      c0.3,0,0.6,0.3,0.6,0.6v13.1c0,1.2,1,2.2,2.7,2.2s2.7-1,2.7-2.2V1.2c0-0.3,0.3-0.6,0.6-0.6h2.8c0.3,0,0.6,0.3,0.6,0.6v13.2H68.2      z"/>
			</g>
			<g>
				<path class="st0" d="M53.2,35.6c0,3.4-2.8,6.2-6.6,6.2S40,39,40,35.6V22.5c0-0.3,0.3-0.6,0.6-0.6h2.8c0.3,0,0.6,0.3,0.6,0.6      v13.1c0,1.2,1,2.2,2.7,2.2s2.7-1,2.7-2.2V22.5c0-0.3,0.3-0.6,0.6-0.6h2.8c0.3,0,0.6,0.3,0.6,0.6v13.1H53.2z"/>
			</g>
			<g>
				<path class="st0" d="M68.2,35.6c0,3.4-2.8,6.2-6.6,6.2c-3.8,0-6.6-2.8-6.6-6.2V22.5c0-0.3,0.3-0.6,0.6-0.6h2.8      c0.3,0,0.6,0.3,0.6,0.6v13.1c0,1.2,1,2.2,2.7,2.2s2.7-1,2.7-2.2V22.5c0-0.3,0.3-0.6,0.6-0.6h2.8c0.3,0,0.6,0.3,0.6,0.6v13.1      H68.2z"/>
			</g>
		</g>
		<g>
			<path class="st0" d="M183.2,27c0.1,0.4,0.6,0.4,0.7,0L190,1.6c0.2-0.7,0.6-1,1.2-1h8.5c0.6,0,1.2,0.5,1.2,1.2v38.3     c0,0.6-0.5,1.2-1.2,1.2h-5.1c-0.6,0-1.2-0.5-1.2-1.2V18.2c0-0.3-0.4-0.5-0.5-0.1L187,40.3c-0.2,0.7-0.6,1-1.2,1h-4.6     c-0.6,0-1-0.3-1.2-1l-5.8-22.2c-0.1-0.3-0.5-0.2-0.5,0.1v21.9c0,0.6-0.5,1.2-1.2,1.2h-5.1c-0.6,0-1.2-0.5-1.2-1.2V1.8     c0-0.6,0.5-1.2,1.2-1.2h8.6c0.6,0,1,0.3,1.2,1L183.2,27z"/>
		</g>
		<g>
			<path class="st0" d="M161.5,29.1c0,7-5.8,12.8-13.8,12.8c-7.9,0-13.7-5.8-13.7-12.8V1.8c0-0.6,0.5-1.2,1.2-1.2h5.9     c0.6,0,1.2,0.5,1.2,1.2v27.3c0,2.6,2.1,4.6,5.5,4.6c3.5,0,5.6-2.1,5.6-4.6V1.8c0-0.6,0.5-1.2,1.2-1.2h5.9c0.6,0,1.2,0.5,1.2,1.2     v27.3H161.5z"/>
		</g>
		<g>
			<g>
				<path class="st0" d="M108.7,15.5c0,0.2,0.1,0.3,0.3,0.3h6.6c0.3,0,0.6,0.2,0.6,0.6v2.8c0,0.3-0.2,0.6-0.6,0.6h-10.2      c-0.3,0-0.6-0.2-0.6-0.6V0.8c0-0.3,0.2-0.6,0.6-0.6h10.1c0.3,0,0.6,0.2,0.6,0.6v2.8c0,0.3-0.2,0.6-0.6,0.6H109      c-0.2,0-0.3,0.1-0.3,0.3v3.3c0,0.2,0.1,0.3,0.3,0.3h6.2c0.3,0,0.6,0.2,0.6,0.6v2.8c0,0.3-0.2,0.6-0.6,0.6H109      c-0.2,0-0.3,0.1-0.3,0.3V15.5z"/>
			</g>
			<g>
				<path class="st0" d="M121.6,15.5c0,0.2,0.1,0.3,0.3,0.3h6.6c0.3,0,0.6,0.2,0.6,0.6v2.8c0,0.3-0.2,0.6-0.6,0.6h-10.2      c-0.3,0-0.6-0.2-0.6-0.6V0.8c0-0.3,0.2-0.6,0.6-0.6h10.1c0.3,0,0.6,0.2,0.6,0.6v2.8c0,0.3-0.2,0.6-0.6,0.6h-6.5      c-0.2,0-0.3,0.1-0.3,0.3v3.3c0,0.2,0.1,0.3,0.3,0.3h6.2c0.3,0,0.6,0.2,0.6,0.6v2.8c0,0.3-0.2,0.6-0.6,0.6h-6.2      c-0.2,0-0.3,0.1-0.3,0.3C121.6,12.4,121.6,15.5,121.6,15.5z"/>
			</g>
			<g>
				<path class="st0" d="M108.7,36.6c0,0.2,0.1,0.3,0.3,0.3h6.6c0.3,0,0.6,0.2,0.6,0.6v2.8c0,0.3-0.2,0.6-0.6,0.6h-10.2      c-0.3,0-0.6-0.2-0.6-0.6V21.9c0-0.3,0.2-0.6,0.6-0.6h10.1c0.3,0,0.6,0.3,0.6,0.6v2.8c0,0.3-0.2,0.6-0.6,0.6H109      c-0.2,0-0.3,0.1-0.3,0.3v3.3c0,0.2,0.1,0.3,0.3,0.3h6.2c0.3,0,0.6,0.2,0.6,0.6v2.8c0,0.3-0.2,0.6-0.6,0.6H109      c-0.2,0-0.3,0.1-0.3,0.3V36.6z"/>
			</g>
			<g>
				<path class="st0" d="M121.6,36.6c0,0.2,0.1,0.3,0.3,0.3h6.6c0.3,0,0.6,0.2,0.6,0.6v2.8c0,0.3-0.2,0.6-0.6,0.6h-10.2      c-0.3,0-0.6-0.2-0.6-0.6V21.9c0-0.3,0.2-0.6,0.6-0.6h10.1c0.3,0,0.6,0.3,0.6,0.6v2.8c0,0.3-0.2,0.6-0.6,0.6h-6.5      c-0.2,0-0.3,0.1-0.3,0.3v3.3c0,0.2,0.1,0.3,0.3,0.3h6.2c0.3,0,0.6,0.2,0.6,0.6v2.8c0,0.3-0.2,0.6-0.6,0.6h-6.2      c-0.2,0-0.3,0.1-0.3,0.3C121.6,33.5,121.6,36.6,121.6,36.6z"/>
			</g>
		</g>
	</g>
</g>
</svg>